<svg width="56" height="16" viewBox="0 0 56 16" fill="none" xmlns="http://www.w3.org/2000/svg">
<path fill-rule="evenodd" clip-rule="evenodd" d="M8.59392 12.1162H6.15514C2.35107 12.1162 5.11474 3.8673 8.31739 3.8673H12.1705C12.7881 3.8673 13.8774 3.98329 14.414 2.42329L15.2431 0H9.95944C7.09812 0 4.87084 1.02894 3.26142 2.7553C0.48132 5.70965 -0.461422 10.3238 0.205024 12.5311C0.839074 14.5727 2.56235 15.9169 5.26099 15.9501L7.35821 15.9668H9.94324L10.5773 14.0249C11.0487 12.6473 9.99183 12.1162 8.59392 12.1162ZM38.2795 8.69718L39.0762 6.05812H30.5737C29.1593 6.05812 28.5253 6.45647 28.2814 7.28635L27.4847 9.92542H35.9874C37.4018 9.92542 38.0358 9.52706 38.2795 8.69718ZM26.2168 13.3445L25.4201 15.9833H33.9226C35.3207 15.9833 35.971 15.5852 36.2149 14.7553L37.0116 12.1162H28.5089C27.1109 12.1162 26.4769 12.5146 26.2168 13.3445ZM40.2631 2.65553L41.0596 0.0167057H32.5571C31.1427 0.0167057 30.5087 0.414822 30.2648 1.2447L29.468 3.88376H37.9708C39.3689 3.88376 40.0027 3.48541 40.2631 2.65553ZM27.4196 3.18683C27.0621 0.730355 25.7778 0.0167057 22.6564 0.0167057H16.9664L13.6499 9.92542H15.7471C16.9988 9.92542 17.6328 9.94188 18.2995 8.11624L19.6812 3.8673H21.7946C23.5994 3.8673 23.1928 6.17435 22.2824 8.41482C21.4695 10.3901 20.0552 12.1327 18.3481 12.1327H14.8203C13.406 12.1327 12.7557 12.5311 12.4956 13.3609L11.6177 16H14.2025L16.7387 15.9833C18.9821 15.9668 20.8193 15.8009 22.9653 13.8256C25.2412 11.7179 27.875 6.30706 27.4196 3.18683ZM56 0H51.0741L46.4407 5.02894C45.9043 5.60988 45.3514 6.19082 44.815 6.87129H44.7662L47.0747 0H43.0591L37.6457 15.9833H41.661L43.3843 10.9544L45.1726 9.41082L46.5871 13.9586C47.0259 15.3694 47.4813 15.9833 48.4567 15.9833H51.5293L48.3754 7.05388L56 0Z" fill="#00B33C"/>
</svg>