<svg width="76" height="11" viewBox="0 0 76 11" fill="none" xmlns="http://www.w3.org/2000/svg">
<path fill-rule="evenodd" clip-rule="evenodd" d="M14.1048 0H12.3235V9.24664H14.1048V0ZM10.248 0.58496H8.46671V9.8316H10.248V0.58496ZM0.753174 1.75336H2.53446V11H0.753174V1.75336ZM6.39124 1.16916H4.60995V10.4158H6.39124V1.16916ZM61.327 4.97531L58.4572 1.73849H56.7789V9.23184H58.5303V4.45127L61.151 7.28375H61.4745L64.0507 4.45127V9.23184H65.8021V1.73849H64.1245L61.327 4.97531ZM69.8063 6.60896L74.1486 1.73849H75.7532V9.23184H74.0011V4.36137L69.6589 9.23184H68.0543V1.73849H69.8063V6.60896ZM47.3432 4.48107C47.3432 5.67423 47.9824 6.61318 48.9735 7.00693L47.1227 9.23184H49.2719L50.9551 7.20872H52.7747V9.23184H54.526V1.73849H50.0662C48.4053 1.73849 47.3432 2.89271 47.3432 4.48107ZM52.7747 3.38701V5.6048H50.3903C49.5953 5.6048 49.1683 5.15517 49.1683 4.49594C49.1683 3.82178 49.6099 3.38701 50.3903 3.38701H52.7747ZM37.5103 7.4771C38.555 7.4771 39.0996 5.81371 39.2033 3.23543L39.2617 1.73849H45.5021V9.23039H43.75V3.44579H40.9825C40.7926 7.53657 39.6282 9.41026 37.5235 9.29062L37.2453 9.27499V7.4771H37.5103ZM32.6082 1.63366C30.2385 1.63366 28.5309 3.29705 28.5309 5.4851C28.5309 7.75108 30.3859 9.35148 32.6082 9.35148C34.9195 9.35148 36.7119 7.65835 36.7119 5.4851C36.7153 3.32678 34.9195 1.63366 32.6082 1.63366ZM32.6082 7.55351C31.2685 7.55351 30.356 6.66913 30.356 5.4851C30.356 4.2714 31.2685 3.41668 32.6082 3.41668C33.9332 3.41668 34.8902 4.31601 34.8902 5.4851C34.8902 6.65426 33.9332 7.55497 32.6082 7.55497V7.55351ZM20.494 1.75336H26.6759L26.6745 7.49335H27.9404V11H26.1598V9.2297H20.021V11H18.255V7.50822L18.7419 7.49335C19.7873 7.46362 20.3465 5.41007 20.4349 3.25244L20.494 1.75336ZM21.1853 7.49335H24.9246V3.46204H22.2161C22.1591 5.11057 21.8183 6.51899 21.1853 7.49335Z" fill="black"/>
</svg>