<svg width="67" height="16" viewBox="0 0 67 16" fill="none" xmlns="http://www.w3.org/2000/svg">
<path d="M14.3808 14.0439C15.3055 13.9481 16.2817 13.9178 17.1872 14.0682C17.1848 14.631 17.0998 15.2047 16.8925 15.7286C16.7847 16.0573 16.3631 16.0063 16.1511 15.8183C15.4863 15.3114 14.9317 14.6721 14.3808 14.0439ZM11.4785 11.2688C13.6166 11.0784 15.781 11.213 17.9298 11.1862C17.8771 11.8533 17.755 12.5337 17.4579 13.1366C16.2122 13.2105 14.9461 13.1888 13.6932 13.1851C13.2057 13.2215 12.9194 12.7836 12.6284 12.4658C12.275 12.0366 11.7899 11.7369 11.4785 11.2688ZM8.62774 8.45108C11.9468 8.30687 15.2791 8.41106 18.603 8.39529C18.488 9.05511 18.5048 9.82046 18.0891 10.3688C15.8289 10.4355 13.5603 10.3385 11.2976 10.404C10.0423 10.5543 9.38594 9.22747 8.62774 8.45108ZM54.9921 7.60205C54.9813 6.90462 54.8651 5.57406 55.8497 5.5971C59.1363 5.59589 62.4232 5.5971 65.7099 5.5971C65.5949 6.27027 65.4296 6.93252 65.2691 7.59477C61.8435 7.60581 58.4177 7.59356 54.9921 7.60205ZM5.7111 5.63725C9.16674 5.53779 12.6308 5.62755 16.0888 5.59722C17.1704 5.62997 18.2604 5.51596 19.336 5.66879C19.1839 6.28495 19.0929 6.92658 18.8378 7.50999C18.4652 7.67252 18.0424 7.54031 17.6495 7.56093C14.3077 7.5585 10.9646 7.53546 7.62278 7.59974C6.93525 6.99935 6.29562 6.33577 5.7111 5.63725ZM55.9264 2.85835C59.4073 2.74191 62.8975 2.83773 66.3819 2.80741C66.2298 3.47936 66.0729 4.14889 65.9076 4.8172C62.4783 4.8075 59.0466 4.84146 55.6173 4.79779C55.6425 4.14767 55.6341 3.45267 55.9264 2.85835ZM2.81602 2.82317C8.50676 2.80619 14.2023 2.77102 19.893 2.84258C19.7708 3.51575 19.9385 4.85238 18.9575 4.79537C14.4898 4.83297 10.0196 4.82569 5.55179 4.80022C5.1649 4.79658 4.6774 4.91302 4.39592 4.56492C3.89644 3.95967 3.32029 3.42478 2.81602 2.82317ZM56.6223 0.0565218C60.0755 0.0104311 63.542 0.0637993 67 0.0371152C66.891 0.703004 66.7245 1.35798 66.5772 2.0178C63.0868 1.97656 59.5844 2.12454 56.1024 1.9426C56.2605 1.32765 56.2198 0.536835 56.6223 0.0565218ZM0 0.110011C0.764195 -0.0282607 1.54157 0.0263203 2.31295 0.0420881C7.86234 0.0384494 13.4129 0.0457269 18.9635 0.0384494C19.4954 0.0530044 20.0523 -0.0743514 20.5662 0.11365C20.6021 0.757706 20.4512 1.43694 20.123 1.99245C14.3101 2.06886 8.48999 1.98881 2.67348 2.03248C2.31654 2.02277 1.89851 2.07129 1.62541 1.78504C1.05526 1.25743 0.449174 0.753946 0 0.110011Z" fill="#F8981D"/>
<path d="M47.5081 0.0251071C49.051 0.00206175 50.6034 -0.0221965 52.1472 0.0372362C52.5639 0.967539 53.2755 1.73289 53.6612 2.67411C53.6061 3.40307 53.2851 4.09321 53.1583 4.81611C51.8202 4.81853 50.4823 4.82945 49.1456 4.81247C49.1743 4.60991 49.2067 4.40736 49.2427 4.20601C48.9743 4.21329 48.7072 4.22057 48.4401 4.23027C48.3156 4.72271 48.197 5.21758 48.0833 5.71366C48.9182 5.84829 50.1507 5.28793 50.6083 6.27039C51.0586 7.12185 51.7401 7.84353 52.1103 8.7326C51.9497 10.1311 51.4539 11.4859 51.2094 12.8783C51.1196 13.2945 51.025 13.7542 50.6561 14.0148C49.8644 14.614 49.2618 15.4448 48.4018 15.9531C46.7632 16.0075 45.1162 15.9785 43.4753 15.9614C43.0644 15.2798 42.5002 14.6976 42.1768 13.9627C44.2227 13.9298 46.271 13.959 48.3181 13.9493C48.8391 13.9748 49.1781 13.5054 49.5637 13.2264C47.0807 13.1343 44.5941 13.2361 42.1099 13.1755C42.2727 12.5109 42.4165 11.8425 42.6046 11.1839C43.9761 11.1475 45.3487 11.1887 46.7202 11.1572C46.6698 11.4433 46.6304 11.7333 46.5979 12.0232C46.8435 12.0196 47.0902 12.0172 47.337 12.0172C47.4028 11.7382 47.4675 11.458 47.5298 11.1778C48.4353 11.145 49.3433 11.173 50.25 11.1753C50.3051 10.9243 50.3566 10.672 50.4069 10.4185C48.6774 10.3652 46.9406 10.461 45.2169 10.3808C44.4947 9.84714 43.9916 9.05402 43.3938 8.38437C45.8026 8.35283 48.2113 8.39407 50.6201 8.36981C50.4153 8.08235 50.3207 7.54746 49.8739 7.61296C47.7227 7.5984 45.5702 7.61417 43.419 7.61053C43.5723 6.93494 43.7819 6.2739 43.9305 5.5971C44.8575 5.59225 45.7846 5.61408 46.7093 5.55586C46.7561 5.30843 46.8053 5.06221 46.8604 4.8172C45.9524 4.81962 45.0457 4.80871 44.1378 4.8172C44.3078 4.14646 44.4719 3.47329 44.648 2.80377C47.161 2.78557 49.674 2.80498 52.187 2.78436C51.9881 2.49447 51.8827 1.95715 51.4347 2.02629C49.3314 2.02144 47.2257 2.06146 45.1224 2.01052C45.8756 1.30352 46.6458 0.590324 47.5081 0.0251071ZM33.2377 8.5372C32.9682 8.96172 33.7 8.64042 33.2377 8.5372V8.5372ZM38.6565 7.65068C38.5893 7.89205 38.5212 8.1333 38.4541 8.37479C39.2327 8.376 40.0125 8.37479 40.7923 8.37358C40.8401 8.12359 40.8833 7.87143 40.9265 7.62036C40.1693 7.61065 39.4111 7.56942 38.6565 7.65068ZM33.4425 7.62036C33.4006 7.87143 33.3563 8.12129 33.3143 8.37236C34.5636 8.39044 35.8129 8.35526 37.0611 8.39905C37.1844 8.13948 37.3066 7.87992 37.4288 7.61914C36.1004 7.59489 34.7709 7.60689 33.4425 7.62036ZM31.4374 0.0237729C32.937 0.00315337 34.4379 0.00315337 35.9387 0.0128567C36.201 1.85163 36.1209 3.73286 36.3316 5.58497C38.0397 5.59104 39.7489 5.62378 41.4558 5.57042C41.5109 5.31934 41.5672 5.06827 41.6259 4.8172C39.9764 4.81477 38.3259 4.82569 36.6766 4.82326C37.0024 4.16344 37.303 3.49027 37.5822 2.8074C39.1129 2.76495 40.6461 2.84137 42.1758 2.76253C42.2165 2.51631 42.2572 2.26887 42.3015 2.02265C40.8642 2.03235 39.4256 2.0554 37.9883 2.00446C38.1859 1.31552 38.5428 0.688448 38.7776 0.0140696C40.5635 0.0104308 42.3484 0.00194045 44.1342 0.0128567C43.4575 3.21858 42.5698 6.377 41.8284 9.56817C41.2487 11.6872 40.8523 13.8511 40.2534 15.9651C38.9023 15.9966 37.55 15.9748 36.1977 15.9676C36.3953 15.3066 36.5738 14.6395 36.7283 13.9663C37.6159 13.9104 38.5155 14.0282 39.3947 13.8946C39.482 13.674 39.5397 13.4434 39.6043 13.2166C38.718 13.1754 37.8303 13.2045 36.9427 13.1851C37.1308 12.5192 37.2805 11.8436 37.4446 11.1716C38.3034 11.1703 39.1622 11.1729 40.0211 11.1668C40.0857 10.9145 40.1552 10.6634 40.2235 10.4111C39.3729 10.4137 38.5214 10.3978 37.6709 10.4063C37.696 10.2389 37.72 10.0715 37.7415 9.90536C36.7677 11.8666 36.036 13.9528 35.0178 15.8862C34.3483 16.1095 33.5673 15.9276 32.8558 15.9699C33.002 15.3149 33.0079 14.643 33.0103 13.9747C33.5493 13.9541 34.0884 13.9541 34.6274 13.9225C34.6946 13.6848 34.7615 13.4483 34.8214 13.2093C34.255 13.1971 33.6895 13.1948 33.1229 13.1778C33.099 12.5107 33.1002 11.8423 33.1205 11.1752C34.0213 11.1448 34.9221 11.1777 35.824 11.1642C35.9174 10.9144 36.012 10.6657 36.1066 10.4159C35.1508 10.3953 34.195 10.4377 33.2403 10.3904C33.2427 9.94284 33.2283 9.49406 33.1912 9.04771C32.5372 11.3293 32.0797 13.6665 31.4999 15.971C30.1895 15.9892 28.8791 15.9736 27.5687 15.9807C27.6682 15.2991 27.8646 14.6368 27.9988 13.9624C28.8684 13.9382 29.7368 13.9539 30.6064 13.955C30.6555 13.7089 30.6986 13.4626 30.7393 13.2152C29.8961 13.1873 29.0516 13.1945 28.2084 13.1751C28.3797 12.5056 28.5569 11.8385 28.7222 11.1678C29.5846 11.169 30.4471 11.1652 31.3095 11.1629C31.3598 10.9167 31.4137 10.6717 31.4652 10.4255C30.6088 10.4085 29.7511 10.4206 28.8947 10.3939C29.0372 9.74259 29.1546 9.07913 29.3882 8.45569C30.2422 8.24949 31.1346 8.47631 32.0018 8.34046C32.0425 8.09788 32.082 7.8553 32.1252 7.61272C31.2867 7.6018 30.4494 7.61635 29.6122 7.59452C29.702 6.91408 29.9104 6.25789 30.035 5.58473C31.6999 5.59807 33.3637 5.60292 35.0286 5.59201C35.0286 5.33366 35.031 5.07652 35.0358 4.81817C33.4344 4.80119 31.8317 4.84485 30.2303 4.79876C30.3955 4.1353 30.5513 3.47062 30.7285 2.8108C32.13 2.78533 33.5302 2.79625 34.9315 2.79261C34.928 2.5379 34.9255 2.28318 34.9232 2.02969C33.5925 2.02726 32.2605 2.04788 30.9286 2.01149C31.0529 1.33869 31.2266 0.675106 31.4374 0.0237729ZM22.5282 0.0445136C25.0903 -0.0221965 27.6571 0.00448757 30.2204 0.0275329C29.8311 1.53882 29.5257 3.07073 29.1113 4.57352C27.971 4.58201 26.8307 4.60506 25.6904 4.57959C25.6233 4.91557 25.5466 5.25154 25.4891 5.58994C26.512 5.59843 27.5338 5.5766 28.5567 5.58994C28.262 7.21161 27.8236 8.80537 27.4391 10.4064C26.3803 10.409 25.3226 10.404 24.2638 10.421C24.1895 10.8334 24.0937 11.2397 24.0063 11.6484C25.1214 11.6751 26.2389 11.6145 27.3541 11.6654C27.069 13.0857 26.8067 14.5183 26.4019 15.9082C23.8529 16.073 21.2669 15.9434 18.7048 15.9663C18.8449 15.2943 19.0234 14.6309 19.1468 13.9541C21.2801 13.948 23.4133 13.9383 25.5466 13.9601C25.6041 13.703 25.664 13.4483 25.7215 13.1924C23.5978 13.196 21.4729 13.1888 19.348 13.1937C19.487 12.5132 19.6798 11.8461 19.8487 11.173C20.8201 11.1548 21.7915 11.1839 22.7641 11.1607C22.8144 10.9049 22.8719 10.6489 22.9306 10.3943C21.9688 10.421 21.0058 10.4221 20.0439 10.3978C20.1961 9.72342 20.359 9.05038 20.5554 8.38813C22.5713 8.34204 24.5884 8.41967 26.6019 8.34932C26.6438 8.10795 26.6845 7.86537 26.73 7.624C24.7405 7.57791 22.7498 7.63613 20.7614 7.59246C20.8417 6.91566 21.0405 6.26068 21.183 5.59601C22.176 5.57539 23.169 5.61784 24.162 5.58024C24.1871 5.33159 24.2171 5.08416 24.2458 4.83673C23.2912 4.80762 22.3377 4.8246 21.3831 4.81247C21.5496 4.14173 21.7185 3.47099 21.8754 2.79904C24.0075 2.7772 26.1395 2.8148 28.2716 2.78569C28.3195 2.53462 28.3674 2.28355 28.4189 2.03369C26.3036 2.02641 24.1871 2.06159 22.073 2.00579C22.188 1.34354 22.3701 0.69706 22.5282 0.0445136Z" fill="#104A9F"/>
</svg>