<svg width="26" height="16" viewBox="0 0 26 16" fill="none" xmlns="http://www.w3.org/2000/svg">
<g clip-path="url(#clip0_417_87)">
<path d="M25.4204 12.952V12.6436H25.3402L25.2474 12.8553L25.1552 12.6436H25.0747V12.952H25.1317V12.7196L25.2184 12.9202H25.2775L25.3642 12.7191V12.952H25.4207H25.4204ZM24.9116 12.952V12.6964H25.0143V12.6443H24.752V12.6964H24.8546V12.952H24.9111H24.9116Z" fill="#F79410"/>
<path d="M16.3082 14.2748H9.36719V1.78125H16.3083L16.3082 14.2748Z" fill="#FF5F00"/>
<path d="M9.80467 8.02865C9.80467 5.49433 10.9894 3.23674 12.8344 1.78186C11.4378 0.678964 9.71058 0.0803846 7.93216 0.0830165C3.55124 0.0830165 0 3.64034 0 8.02865C0 12.4169 3.55124 15.9743 7.93216 15.9743C9.71063 15.9769 11.4379 15.3784 12.8345 14.2754C10.9897 12.8208 9.80467 10.5631 9.80467 8.02865Z" fill="#EB001B"/>
<path d="M25.6701 8.02865C25.6701 12.417 22.1189 15.9743 17.7379 15.9743C15.9593 15.9769 14.2318 15.3783 12.835 14.2754C14.6804 12.8205 15.8652 10.5631 15.8652 8.02865C15.8652 5.4942 14.6804 3.23674 12.835 1.78186C14.2317 0.678997 15.9592 0.0804307 17.7378 0.0830162C22.1187 0.0830162 25.67 3.64034 25.67 8.02865" fill="#F79E1B"/>
</g>
<defs>
<clipPath id="clip0_417_87">
<rect width="25.75" height="16" fill="white"/>
</clipPath>
</defs>
</svg>