<svg width="49" height="14" viewBox="0 0 49 14" fill="none" xmlns="http://www.w3.org/2000/svg">
<path fill-rule="evenodd" clip-rule="evenodd" d="M4.98521 0.00225745C5.41848 -0.000334544 6.70614 -0.116308 7.25157 1.72451C7.61897 2.9645 8.20423 4.99567 9.00733 7.81801H9.33441C10.1957 4.8425 10.7873 2.81133 11.1093 1.72451C11.6604 -0.135483 13.0382 0.0022939 13.5893 0.0022939L17.8413 0.0022992V13.2289H13.5076V5.43423H13.217L10.8011 13.2289H7.5406L5.12478 5.42846H4.83418V13.2289H0.500488V0.0022992L4.98521 0.00225745ZM24.0643 0.0022992V7.80274H24.4101L27.3487 1.38849C27.9191 0.112039 29.1349 0.0022992 29.1349 0.0022992H33.3286V13.2289H28.9044V5.42846H28.5587L25.6777 11.8427C25.1073 13.1134 23.8339 13.2289 23.8339 13.2289H19.6401V0.0022992H24.0643ZM48.6206 6.28767C48.0035 8.03646 46.0654 9.2889 43.9198 9.2889H39.2801V13.2289H35.073V6.28767H48.6206Z" fill="#0F754E"/>
<path fill-rule="evenodd" clip-rule="evenodd" d="M44.1227 0.00244141H34.8524C35.073 2.94713 37.6089 5.46798 40.2341 5.46798H48.913C49.4138 3.02059 47.6897 0.00244141 44.1227 0.00244141Z" fill="url(#paint0_linear_518_93)"/>

<defs>
<linearGradient id="paint0_linear_518_93" x1="48.9981" y1="3.4405" x2="34.8524" y2="3.4405" gradientUnits="userSpaceOnUse">
<stop stop-color="#1F5CD7"/>
<stop offset="1" stop-color="#02AEFF"/>
</linearGradient>
</defs></svg>