<svg width="36" height="17" viewBox="0 0 36 17" fill="none" xmlns="http://www.w3.org/2000/svg">
<path d="M0.753174 8.5C0.753174 3.80559 4.67069 0 9.50317 0H27.0032C31.8357 0 35.7532 3.80559 35.7532 8.5C35.7532 13.1944 31.8357 17 27.0032 17H9.50317C4.67069 17 0.753174 13.1944 0.753174 8.5Z" fill="url(#paint0_linear_10432_9314)"/>
<path d="M0.753174 8.5C0.753174 3.80559 4.67069 0 9.50317 0H27.0032C31.8357 0 35.7532 3.80559 35.7532 8.5C35.7532 13.1944 31.8357 17 27.0032 17H9.50317C4.67069 17 0.753174 13.1944 0.753174 8.5Z" fill="url(#paint1_radial_10432_9314)" fill-opacity="0.2"/>
<path d="M0.753174 8.5C0.753174 3.80559 4.67069 0 9.50317 0H27.0032C31.8357 0 35.7532 3.80559 35.7532 8.5C35.7532 13.1944 31.8357 17 27.0032 17H9.50317C4.67069 17 0.753174 13.1944 0.753174 8.5Z" fill="url(#paint2_radial_10432_9314)"/>
<path d="M0.753174 8.5C0.753174 3.80559 4.67069 0 9.50317 0H27.0032C31.8357 0 35.7532 3.80559 35.7532 8.5C35.7532 13.1944 31.8357 17 27.0032 17H9.50317C4.67069 17 0.753174 13.1944 0.753174 8.5Z" fill="url(#paint3_radial_10432_9314)"/>
<path d="M18.2078 9.42268V11.3627H17.0632V5.13404H19.1959C21.22 5.13404 22.0802 5.83759 22.0802 7.24352C22.0802 8.69359 21.073 9.42268 19.1959 9.42268H18.2078ZM18.2078 6.158V8.39871H19.2832C20.3454 8.39871 20.895 8.06087 20.895 7.21565C20.895 6.45058 20.417 6.15687 19.3023 6.15687L18.2078 6.158Z" fill="white"/>
<path d="M22.6849 7.22585C22.9859 7.00644 23.5356 6.82532 24.3241 6.82532C25.6612 6.82532 26.3207 7.27115 26.3207 8.42747V11.3636H25.3135V10.5625C25.0936 11.078 24.5356 11.4344 23.802 11.4344C22.8772 11.4344 22.3288 10.927 22.3288 10.0551C22.3288 9.04046 23.0887 8.75603 24.2142 8.75603H25.2489V8.56099C25.2489 7.9294 24.9383 7.73319 24.3241 7.73319C23.4818 7.73319 22.9967 8.05364 22.686 8.52497L22.6849 7.22585ZM25.2478 9.79278V9.43287H24.3421C23.71 9.43287 23.4077 9.54897 23.4077 9.94833C23.4077 10.2862 23.6634 10.4998 24.1401 10.4998C24.863 10.4998 25.2024 10.0993 25.2478 9.79278Z" fill="white"/>
<path d="M26.85 6.91454H28.0449L29.2995 9.96561L30.3246 6.91454H31.4597L29.6292 11.8348C29.2254 12.9017 28.8144 13.142 28.2098 13.142C27.9254 13.142 27.6124 13.0619 27.4773 12.947V11.9764C27.6246 12.116 27.8212 12.1958 28.027 12.1993C28.3555 12.1993 28.6029 11.9857 28.7773 11.3866L26.85 6.91454Z" fill="white"/>
<path d="M7.63924 7.23006V8.59655L9.50317 9.73197L13.9659 6.5416C13.8084 6.20511 13.6112 5.88756 13.378 5.59541L9.50317 8.36549L7.63924 7.23006Z" fill="white"/>
<path d="M13.2681 8.39896V8.49763C13.2694 9.31611 12.9886 10.1114 12.4704 10.7567C11.9522 11.4019 11.2266 11.86 10.4092 12.0577C9.59177 12.2555 8.72978 12.1815 7.96073 11.8477C7.19164 11.5138 6.55982 10.9393 6.16603 10.2158C5.77225 9.49223 5.63917 8.66139 5.78811 7.85584C5.937 7.05025 6.3593 6.31635 6.98759 5.77122C7.61591 5.22605 8.41402 4.9011 9.25456 4.84815C10.0951 4.7952 10.9298 5.01734 11.6252 5.4791L12.5811 4.79761C11.7169 4.11899 10.6409 3.74606 9.52975 3.73993C8.41865 3.7338 7.33839 4.09491 6.46627 4.76397C5.59418 5.43299 4.98209 6.37022 4.73045 7.42185C4.47881 8.47344 4.60259 9.57695 5.08143 10.5512C5.56028 11.5254 6.36579 12.3126 7.36569 12.7834C8.36564 13.2542 9.50059 13.3807 10.5843 13.1422C11.668 12.9037 12.636 12.3143 13.3295 11.4707C14.023 10.6272 14.4008 9.57961 14.4008 8.49996C14.4007 8.2138 14.3743 7.92823 14.322 7.64664L13.2681 8.39896Z" fill="white"/>
<defs>
<linearGradient id="paint0_linear_10432_9314" x1="1.32321" y1="1.25217e-07" x2="35.8304" y2="0.213546" gradientUnits="userSpaceOnUse">
<stop stop-color="#1EDB01"/>
<stop offset="1" stop-color="#00C746"/>
</linearGradient>
<radialGradient id="paint1_radial_10432_9314" cx="0" cy="0" r="1" gradientUnits="userSpaceOnUse" gradientTransform="translate(27.2948 17) rotate(-135.83) scale(26.0243 31.4677)">
<stop stop-color="#00A7FA"/>
<stop offset="1" stop-color="#00A7FA" stop-opacity="0"/>
</radialGradient>
<radialGradient id="paint2_radial_10432_9314" cx="0" cy="0" r="1" gradientUnits="userSpaceOnUse" gradientTransform="translate(28.8698 16.7167) rotate(180) scale(14.0583 17.0557)">
<stop stop-color="#00A7FA"/>
<stop offset="1" stop-color="#00A7FA" stop-opacity="0"/>
</radialGradient>
<radialGradient id="paint3_radial_10432_9314" cx="0" cy="0" r="1" gradientUnits="userSpaceOnUse" gradientTransform="translate(4.07817 2.32333) rotate(44.1697) scale(14.476 17.4629)">
<stop stop-color="#FAED01"/>
<stop offset="1" stop-color="#FAED01" stop-opacity="0"/>
</radialGradient>
</defs>
</svg>