<svg width="61" height="20" viewBox="0 0 61 20" fill="none" xmlns="http://www.w3.org/2000/svg">
<path d="M51.0963 0.416667H9.90367C4.66193 0.416667 0.412653 4.70727 0.412653 10C0.412653 15.2927 4.66193 19.5833 9.90367 19.5833H51.0963C56.3381 19.5833 60.5873 15.2927 60.5873 10C60.5873 4.70727 56.3381 0.416667 51.0963 0.416667Z" fill="black"/>
<path d="M34.5027 0.833333H9.90367C4.88983 0.833333 0.825306 4.93739 0.825306 10C0.825306 15.0626 4.88983 19.1667 9.90367 19.1667H34.5027C39.5166 19.1667 43.5811 15.0626 43.5811 10C43.5811 4.93739 39.5166 0.833333 34.5027 0.833333Z" fill="white"/>
<path d="M16.0109 10C16.0109 6.59424 13.2766 3.83333 9.90367 3.83333C6.53072 3.83333 3.79641 6.59424 3.79641 10C3.79641 13.4058 6.53072 16.1667 9.90367 16.1667C13.2766 16.1667 16.0109 13.4058 16.0109 10Z" fill="#FC3F1D"/>
<path d="M10.7644 13.7062H12.0403V6.30617H10.1844C8.31794 6.30617 7.33727 7.2751 7.33727 8.70185C7.33727 9.84113 7.87505 10.5119 8.83463 11.204L7.16854 13.7062H8.54992L10.4058 10.9059L9.76259 10.4693C8.98226 9.93697 8.60266 9.52172 8.60266 8.62732C8.60266 7.83942 9.15099 7.30703 10.1949 7.30703H10.7644V13.7062Z" fill="white"/>
<path fill-rule="evenodd" clip-rule="evenodd" d="M20.319 6.647V9.69097H21.6278C22.0249 9.70008 22.3679 9.6454 22.6568 9.54515C22.9366 9.4449 23.1622 9.28085 23.3066 9.05302C23.4511 8.82517 23.5323 8.52442 23.5323 8.15075C23.5323 7.64038 23.3878 7.26672 23.0901 7.02065C22.8012 6.77458 22.3319 6.647 21.7092 6.647H20.319ZM20.319 14.0929V11.0763H21.6189C22.4132 11.0763 23.0992 10.976 23.6496 10.7846C24.2003 10.5932 24.6336 10.2834 24.9404 9.85502C25.2473 9.42667 25.4008 8.86162 25.4008 8.15075C25.4008 7.19382 25.0938 6.47383 24.471 5.99992C23.8482 5.5169 22.9006 5.27993 21.6278 5.27993H18.4868V14.0929H20.319ZM32.4555 13.3078L32.4556 13.3091C32.4646 13.5642 32.4916 13.8284 32.5187 14.0926L30.7586 14.0929C30.7407 14.0291 30.7136 13.9289 30.6865 13.8104C30.6504 13.6919 30.6324 13.5735 30.6142 13.455H30.5512C30.3977 13.5735 30.2352 13.6919 30.0456 13.8013C29.8561 13.9198 29.6214 14.0109 29.3416 14.0747C29.0618 14.1476 28.7188 14.1841 28.3217 14.1841C27.6177 14.1841 27.0581 14.0109 26.6339 13.6646C26.2097 13.3183 26.0021 12.8261 26.0021 12.1973C26.0021 11.696 26.1465 11.295 26.4263 10.9852C26.7061 10.6753 27.1483 10.4383 27.7351 10.3016C28.3217 10.1649 29.098 10.0829 30.0367 10.0829H30.6142V9.82772C30.6142 9.60898 30.5601 9.42672 30.4429 9.2809C30.3255 9.13508 30.1629 9.03483 29.9373 8.98015C29.7117 8.92547 29.45 8.89812 29.125 8.89812C28.7911 8.89812 28.457 8.92547 28.1142 8.98015C27.7712 9.03483 27.4642 9.10773 27.1935 9.19887C26.9226 9.29002 26.697 9.38115 26.5255 9.47228V8.1508C26.8054 8.00498 27.1935 7.87738 27.6898 7.77713C28.1863 7.66777 28.755 7.6222 29.4048 7.6222C30.0908 7.6222 30.6594 7.686 31.1016 7.83182C31.544 7.96852 31.8779 8.20548 32.1036 8.53357C32.3292 8.86167 32.4375 9.29912 32.4375 9.83683V12.5345C32.4375 12.7983 32.4466 13.0531 32.4555 13.3078ZM30.0817 11.1583C29.5402 11.1583 29.107 11.1857 28.782 11.2494C28.457 11.3132 28.2225 11.4135 28.0781 11.5502C27.9336 11.696 27.8613 11.8874 27.8613 12.1335C27.8613 12.3158 27.9066 12.4798 27.9878 12.6074C28.069 12.735 28.2043 12.8352 28.3758 12.9081C28.5473 12.9811 28.773 13.0266 29.0438 13.0266C29.4048 13.0266 29.7117 12.9628 29.9825 12.8444C30.2442 12.7259 30.4609 12.5618 30.6324 12.3522V11.1583H30.0817ZM34.1023 14.5669V15.8884C34.4362 16.0068 34.7883 16.0615 35.1584 16.0524C35.5373 16.0524 35.8803 16.0069 36.1601 15.9248C36.449 15.8428 36.7017 15.7061 36.9273 15.5147C37.153 15.3233 37.3515 15.0955 37.5412 14.813C37.7216 14.5304 37.8931 14.2023 38.0557 13.8105L40.61 7.71338H38.877L37.0295 12.4902L35.059 7.71338H33.1636L36.0604 14.2379C36.0196 14.3042 35.978 14.3652 35.9345 14.4211C35.8353 14.5487 35.7088 14.6489 35.5644 14.7127C35.42 14.7765 35.2396 14.8039 35.0228 14.8039C34.8154 14.8039 34.6439 14.7856 34.4994 14.7401C34.3459 14.7036 34.2197 14.6398 34.1023 14.5669Z" fill="black"/>
<path d="M57.6989 4H46.057V16H57.6989V4Z" fill="black"/>
<path d="M53.7122 8.63072L53.6568 8.5545C56.4851 6.24897 56.1708 5.906 56.1708 5.906C55.8935 5.60115 55.5977 5.33438 55.2834 5.10573C54.8399 4.78182 54.3593 4.51507 53.8416 4.34358C51.6973 3.54332 49.1463 4.1721 47.6121 5.906C45.5602 8.17342 45.5232 11.7746 47.5936 14.0801C49.7748 16.5 53.4904 16.6524 55.838 14.4231L55.9305 14.3278C55.9674 14.2897 56.0044 14.2516 56.0229 14.2135C56.6884 13.337 55.6902 10.9553 53.7122 8.63072ZM55.5238 13.7753C55.3759 13.9277 54.7475 13.9467 53.7307 13.3942C52.788 12.8797 51.7343 12.0033 50.7362 10.9362C50.5698 11.0696 53.3425 8.82125 53.2131 8.93558C54.082 9.96448 54.8214 11.0887 55.2095 12.0223C55.6717 13.1084 55.6532 13.6419 55.5238 13.7753Z" fill="white"/>
<path fill-rule="evenodd" clip-rule="evenodd" d="M9.90367 0.833333C4.88983 0.833333 0.825306 4.93739 0.825306 10C0.825306 15.0626 4.88983 19.1667 9.90367 19.1667H51.0963C56.1102 19.1667 60.1747 15.0626 60.1747 10C60.1747 4.93739 56.1102 0.833333 51.0963 0.833333H9.90367ZM0 10C0 4.47715 4.43402 0 9.90367 0H51.0963C56.566 0 61 4.47715 61 10C61 15.5228 56.566 20 51.0963 20H9.90367C4.43402 20 0 15.5228 0 10Z" fill="black"/>
</svg>