<svg width="45" height="17" viewBox="0 0 45 17" fill="none" xmlns="http://www.w3.org/2000/svg">
<path d="M0.753174 8.5C0.753174 3.80552 4.73154 0 9.63907 0H35.8673C40.7749 0 44.7532 3.80552 44.7532 8.5C44.7532 13.1945 40.7749 17 35.8673 17H9.63907C4.7315 17 0.753174 13.1945 0.753174 8.5Z" fill="black"/>
<path d="M10.5523 2.90452C9.81349 2.90452 8.89562 3.3412 8.55355 3.64862L8.68802 3.94081C8.68802 3.94081 7.64641 3.95427 7.10952 4.28471C6.57266 4.61514 6.32785 4.84003 6.06346 5.37412C5.7987 5.38616 4.80599 5.7892 4.23111 6.19437C4.23111 6.19437 3.74791 7.94431 4.66312 8.69939L4.08539 9.45802C4.23111 9.93579 4.86031 10.421 5.48565 10.4791C5.767 10.8053 5.22126 11.453 5.22126 11.453C5.4523 12.1546 7.00759 12.9257 7.93646 12.9257L7.80861 13.3386C7.80861 13.3386 8.84326 14.0594 10.5129 13.9921C11.9243 14.0356 13.0722 13.7133 13.3636 13.3386L13.2161 12.9257C14.5052 12.7418 15.4789 12.3399 16.0206 11.4863C16.0206 11.4863 15.6174 10.6749 15.7581 10.4716C16.3835 10.4136 16.9681 9.82458 17.1236 9.5671L16.5564 8.7132C17.0088 8.22693 17.2621 6.9445 16.9296 6.19437C16.3546 5.7892 15.3716 5.45947 15.1068 5.44743C15.0018 4.85456 14.3274 4.39131 14.3274 4.39131C13.6888 3.86006 12.5272 3.94081 12.5272 3.94081L12.6217 3.64862C12.3255 3.3327 11.3905 2.90452 10.5523 2.90452Z" fill="white"/>
<path d="M8.82962 4.5638C8.09042 4.38388 7.53317 4.63038 7.05099 4.96932C6.5679 5.30932 6.37722 5.7499 6.41961 5.9075C6.02452 5.75273 5.15711 6.23263 4.74422 6.46284C4.74422 6.46284 4.42469 7.95778 5.24149 8.53648C5.19906 8.94236 4.89957 9.43005 4.74422 9.52142C5.01346 9.9273 5.58401 10.0385 5.82567 9.93544C6.22957 10.4702 6.03441 11.1952 5.81 11.4265C6.43776 11.9684 7.93551 12.1957 8.37422 12.2297C8.37422 12.2297 7.98805 11.3642 7.81562 10.6505C7.33908 8.67886 7.59555 6.21882 7.59555 6.21882C7.59555 6.21882 6.48244 7.4584 7.10294 10.4465C7.20768 10.9512 7.35574 11.4846 7.35574 11.4846C7.25252 11.4353 7.00057 11.4651 6.53731 11.2409C6.73577 11.0365 6.65043 9.82388 6.06577 9.22924C6.06577 9.22924 5.7876 9.35178 5.58341 9.27067C5.72077 9.18992 5.89235 8.67461 5.89235 8.28042C5.23124 7.90217 5.30136 7.21899 5.33409 6.85986C5.65846 6.65834 6.24027 6.31586 6.97228 6.61478C6.95306 6.44513 7.00312 5.99357 7.20398 5.67765C7.20398 5.67765 7.44849 5.27071 8.00075 5.14286C8.55297 5.01536 8.82962 4.5638 8.82962 4.5638Z" fill="#333333"/>
<path d="M12.3794 4.5638C13.1186 4.38388 13.6758 4.63038 14.158 4.96932C14.6411 5.30932 14.8317 5.7499 14.7893 5.9075C15.1844 5.75273 16.0517 6.23263 16.4649 6.46284C16.4649 6.46284 16.7844 7.95778 15.9673 8.53648C16.0099 8.94236 16.3094 9.43005 16.4649 9.52142C16.1954 9.9273 15.6248 10.0385 15.3833 9.93544C14.9794 10.4702 15.1746 11.1952 15.3989 11.4265C14.7712 11.9684 13.2735 12.1957 12.8348 12.2297C12.8348 12.2297 13.2209 11.3642 13.3934 10.6509C13.8699 8.67886 13.6134 6.21882 13.6134 6.21882C13.6134 6.21882 14.7265 7.4584 14.1061 10.4465C14.0013 10.9512 13.8532 11.4846 13.8532 11.4846C13.9565 11.4353 14.2084 11.4651 14.6716 11.2409C14.4732 11.0365 14.5585 9.82388 15.1432 9.22924C15.1432 9.22924 15.4213 9.35178 15.6256 9.27067C15.4882 9.18992 15.3166 8.67461 15.3166 8.28042C15.9777 7.90217 15.9077 7.21899 15.8748 6.85986C15.5505 6.65834 14.9687 6.31586 14.2367 6.61478C14.2559 6.44513 14.2058 5.99357 14.005 5.67765C14.005 5.67765 13.7605 5.27071 13.2082 5.14286C12.656 5.01536 12.3794 4.5638 12.3794 4.5638Z" fill="#333333"/>
<path fill-rule="evenodd" clip-rule="evenodd" d="M10.6648 5.7159C10.1326 5.71413 9.4297 5.84942 9.4297 5.84942L9.21854 3.83846L10.6394 3.42798L11.9904 3.83846L11.8747 5.84942C11.8747 5.84942 11.1883 5.71767 10.6648 5.7159ZM10.6648 5.14251C10.3697 5.13507 9.98984 5.18607 9.98984 5.18607L9.90302 4.23336L10.6394 4.04246L11.3703 4.23336V5.18607C11.3703 5.18607 10.9661 5.1503 10.6648 5.14251Z" fill="#333333"/>
<path fill-rule="evenodd" clip-rule="evenodd" d="M10.5971 13.3574C11.827 13.3436 12.6143 12.993 12.6143 12.993L12.1335 11.548C12.1335 11.548 11.1015 11.8341 10.6044 11.8345C10.1074 11.8341 9.09177 11.548 9.09177 11.548L8.59457 12.993C8.59457 12.993 9.3672 13.3436 10.5971 13.3574ZM10.6044 12.875C11.3047 12.8725 11.7374 12.7348 11.9722 12.6438L11.8436 12.1486C11.5538 12.2397 11.0509 12.3402 10.6044 12.3438C10.158 12.3402 9.65203 12.2651 9.36216 12.1741L9.2502 12.6438C9.48501 12.7348 9.90416 12.8725 10.6044 12.875Z" fill="#333333"/>
<path fill-rule="evenodd" clip-rule="evenodd" d="M13.0941 6.48302H8.11484C8.15345 6.53437 8.31036 6.78406 8.36649 6.92856C8.4228 7.07306 8.46427 7.21898 8.46616 7.30894C8.46764 7.38012 8.47671 7.60112 8.48856 7.89012L8.48867 7.89296C8.51218 8.466 8.54673 9.30856 8.55643 9.80617C8.56072 10.0254 8.6117 10.3165 8.79579 10.5545C8.98324 10.7968 9.29981 10.9728 9.80878 10.9728H10.1667C10.2021 10.9728 10.2264 10.9816 10.2457 10.994C10.2662 11.0075 10.2853 11.0284 10.3043 11.0581C10.3236 11.0883 10.3436 11.1304 10.3623 11.1704C10.3792 11.2069 10.3982 11.2476 10.4207 11.2845C10.4283 11.2944 10.459 11.3337 10.4878 11.351C10.5185 11.3698 10.557 11.3811 10.6045 11.3811C10.6529 11.3811 10.6918 11.3695 10.7227 11.3514C10.7518 11.334 10.7809 11.294 10.7891 11.2845C10.8123 11.2462 10.8355 11.2044 10.8525 11.1669C10.8708 11.1269 10.8889 11.0875 10.9076 11.0574C10.9261 11.0277 10.9446 11.0071 10.9645 10.994C10.9831 10.9816 11.0069 10.9728 11.0422 10.9728H11.4001C11.9091 10.9728 12.2257 10.7968 12.4131 10.5545C12.5972 10.3165 12.6482 10.0258 12.6525 9.80617C12.6622 9.30856 12.6967 8.466 12.7202 7.89296L12.7203 7.89048C12.7322 7.60148 12.7412 7.38012 12.7428 7.30894C12.7446 7.21898 12.7861 7.07306 12.8424 6.92856C12.8986 6.78406 13.0555 6.53437 13.0941 6.48302ZM9.06252 7.15735C9.05659 7.12654 9.05015 7.09679 9.04349 7.06988H12.1795C12.1707 7.09963 12.1644 7.12973 12.16 7.15771C12.1488 7.22748 12.1467 7.3394 12.1467 7.3394C12.1224 7.92554 12.0734 9.14635 12.0734 9.7534C12.0734 10.0041 11.9889 10.166 11.8772 10.2648C11.7642 10.3647 11.6151 10.4068 11.4732 10.4026C11.4543 10.4022 11.4165 10.4015 11.3761 10.4008C11.3221 10.4001 11.2636 10.399 11.2402 10.398C11.0975 10.3916 10.9588 10.398 10.8383 10.4295C10.7508 10.4525 10.6706 10.4897 10.6056 10.5467C10.4535 10.4033 10.2084 10.3399 9.95732 10.3509C9.93392 10.3519 9.86943 10.353 9.8096 10.3537C9.76347 10.3544 9.72007 10.3551 9.70045 10.3555C9.4338 10.3636 9.16389 10.1525 9.16389 9.7534C9.16389 9.0904 9.11883 7.9769 9.09573 7.40563C9.09573 7.40563 9.07907 7.24271 9.06252 7.15735Z" fill="#333333"/>
<path d="M9.03645 7.06989C9.04311 7.0968 9.04956 7.12655 9.05548 7.15736C9.07203 7.24272 9.08873 7.40564 9.08873 7.40564C9.11183 7.97691 9.15686 9.09041 9.15686 9.75341C9.15686 10.1526 9.42676 10.3636 9.69345 10.3555C9.71307 10.3551 9.75643 10.3544 9.8026 10.3537C9.86243 10.353 9.92689 10.3519 9.95033 10.3509C10.2013 10.3399 10.4465 10.4033 10.5986 10.5467C10.6635 10.4897 10.7438 10.4525 10.8313 10.4295C10.9518 10.398 11.0905 10.392 11.2331 10.398C11.2566 10.399 11.3151 10.4001 11.3691 10.4008C11.4095 10.4015 11.4473 10.4022 11.4662 10.4026C11.608 10.4068 11.7572 10.3647 11.8702 10.2648C11.9819 10.166 12.0664 10.0042 12.0664 9.75341C12.0664 9.14637 12.1153 7.92555 12.1397 7.33941C12.1397 7.33941 12.1417 7.22749 12.1529 7.15772C12.1574 7.12974 12.1637 7.09964 12.1724 7.06989H9.03645Z" fill="#FFDD2D"/>
<path d="M23.4004 5.63409H19.649V11.3659H21.4743V9.82459H23.4004C23.8535 9.82459 24.2941 9.81255 24.7221 9.68009C25.553 9.42721 26.1698 8.71675 26.1698 7.75342C26.1698 6.79009 25.5656 6.09167 24.7473 5.81471C24.2941 5.65817 23.8661 5.63409 23.4004 5.63409ZM21.4743 8.47592V7.01888H23.136C23.4885 7.01888 23.6899 7.055 23.8535 7.11521C24.1431 7.22359 24.2816 7.47646 24.2816 7.74138C24.2816 8.03038 24.1179 8.30734 23.8032 8.40367C23.6521 8.45184 23.4759 8.47592 23.136 8.47592H21.4743Z" fill="white"/>
<path d="M28.786 9.27067L29.6546 6.95867H29.793L30.6616 9.27067H28.786ZM28.3332 10.535H31.1022L31.4547 11.3659H33.5066L31.0519 5.63409H28.3835L25.9288 11.3659H27.9933L28.3332 10.535Z" fill="white"/>
<path d="M37.9495 5.63409L36.4641 8.24713H36.4012L34.9031 5.63409H32.7757L35.4822 9.84867V11.3659H37.3705V9.70417L39.9385 5.63409H37.9495Z" fill="white"/>
</svg>